<?xml version="1.0" encoding="UTF-8"?><svg id="Layer_2" xmlns="http://www.w3.org/2000/svg" viewBox="0 0 67.5 67.5"><defs><style>.cls-1{stroke-miterlimit:10;}.cls-1,.cls-2{fill:none;stroke:#fff;}.cls-2{stroke-linecap:round;stroke-linejoin:round;stroke-width:1.09px;}.cls-3{fill:#fff;font-family:Kobe1.1-Bold, Kobe1.1;font-size:4.66px;font-weight:700;}</style></defs><g id="Layer_1-2"><circle class="cls-1" cx="33.75" cy="33.75" r="33.25"/><path class="cls-2" d="M29.21,26.52c3.81.62,7.99,1.48,11.73.11,1.23-.45,2.44-1.21,2.96-2.42.39-.91.11-2.26-.87-2.43-.82-.14-1.5.62-1.97,1.31-5.28,7.66-9.67,16.48-17.58,21.38-.45.28-1.09.52-1.44.12-.16-.18-.19-.44-.17-.67.11-1.67,2.12-2.65,3.77-2.39s3.04,1.34,4.47,2.22c2.47,1.52,5.74,2.47,8.18.91,1.46-.94,2.29-2.6,2.77-4.27"/><text class="cls-3" transform="translate(10.75 26.58) rotate(-69.89)"><tspan x="0" y="0">L</tspan></text><text class="cls-3" transform="translate(11.55 24.42) rotate(-64.18)"><tspan x="0" y="0">E</tspan></text><text class="cls-3" transform="translate(12.65 22.18) rotate(-58.2)"><tspan x="0" y="0">S</tspan></text><text class="cls-3" transform="translate(14 20.04) rotate(-52.52)"><tspan x="0" y="0">T</tspan></text><text class="cls-3" transform="translate(15.36 18.26) rotate(-46.96)"><tspan x="0" y="0">É</tspan></text><text class="cls-3" transform="translate(17.12 16.44) rotate(-42.61)"><tspan x="0" y="0"> </tspan></text><text class="cls-3" transform="translate(17.96 15.66) rotate(-38.93)"><tspan x="0" y="0">•</tspan></text><text class="cls-3" transform="translate(19.53 14.42) rotate(-35.16)"><tspan x="0" y="0"> </tspan></text><text class="cls-3" transform="translate(20.47 13.74) rotate(-31.02)"><tspan x="0" y="0">L</tspan></text><text class="cls-3" transform="translate(22.44 12.56) rotate(-25.33)"><tspan x="0" y="0">E</tspan></text><text class="cls-3" transform="translate(24.7 11.51) rotate(-19.31)"><tspan x="0" y="0">S</tspan></text><text class="cls-3" transform="translate(27.08 10.69) rotate(-13.62)"><tspan x="0" y="0">T</tspan></text><text class="cls-3" transform="translate(29.28 10.16) rotate(-7.97)"><tspan x="0" y="0">É</tspan></text><text class="cls-3" transform="translate(31.77 9.85) rotate(-3.63)"><tspan x="0" y="0"> </tspan></text><text class="cls-3" transform="translate(32.93 9.76) rotate(.93)"><tspan x="0" y="0">•</tspan></text><text class="cls-3" transform="translate(34.91 9.79) rotate(3.72)"><tspan x="0" y="0"> </tspan></text><text class="cls-3" transform="translate(36.08 9.86) rotate(7.87)"><tspan x="0" y="0">L</tspan></text><text class="cls-3" transform="translate(38.34 10.18) rotate(13.53)"><tspan x="0" y="0">E</tspan></text><text class="cls-3" transform="translate(40.77 10.77) rotate(19.58)"><tspan x="0" y="0">S</tspan></text><text class="cls-3" transform="translate(43.15 11.64) rotate(25.29)"><tspan x="0" y="0">T</tspan></text><text class="cls-3" transform="translate(45.19 12.61) rotate(30.94)"><tspan x="0" y="0">É</tspan></text><text class="cls-3" transform="translate(47.31 13.92) rotate(35.25)"><tspan x="0" y="0"> </tspan></text><text class="cls-3" transform="translate(48.28 14.6) rotate(39.02)"><tspan x="0" y="0">•</tspan></text><text class="cls-3" transform="translate(49.8 15.86) rotate(42.7)"><tspan x="0" y="0"> </tspan></text><text class="cls-3" transform="translate(50.65 16.63) rotate(46.79)"><tspan x="0" y="0">L</tspan></text><text class="cls-3" transform="translate(52.24 18.33) rotate(52.52)"><tspan x="0" y="0">E</tspan></text><text class="cls-3" transform="translate(53.74 20.31) rotate(58.46)"><tspan x="0" y="0">S</tspan></text><text class="cls-3" transform="translate(55.04 22.46) rotate(64.1)"><tspan x="0" y="0">T</tspan></text><text class="cls-3" transform="translate(56.03 24.5) rotate(69.8)"><tspan x="0" y="0">É</tspan></text><text class="cls-3" transform="translate(56.32 40.92) rotate(110.11)"><tspan x="0" y="0">L</tspan></text><text class="cls-3" transform="translate(55.52 43.07) rotate(115.81)"><tspan x="0" y="0">E</tspan></text><text class="cls-3" transform="translate(54.43 45.31) rotate(121.8)"><tspan x="0" y="0">S</tspan></text><text class="cls-3" transform="translate(53.08 47.46) rotate(127.48)"><tspan x="0" y="0">T</tspan></text><text class="cls-3" transform="translate(51.71 49.23) rotate(133.04)"><tspan x="0" y="0">É</tspan></text><text class="cls-3" transform="translate(49.96 51.05) rotate(137.39)"><tspan x="0" y="0"> </tspan></text><text class="cls-3" transform="translate(49.12 51.83) rotate(141.07)"><tspan x="0" y="0">•</tspan></text><text class="cls-3" transform="translate(47.54 53.08) rotate(144.84)"><tspan x="0" y="0"> </tspan></text><text class="cls-3" transform="translate(46.61 53.75) rotate(148.98)"><tspan x="0" y="0">L</tspan></text><text class="cls-3" transform="translate(44.63 54.93) rotate(154.67)"><tspan x="0" y="0">E</tspan></text><text class="cls-3" transform="translate(42.37 55.99) rotate(160.69)"><tspan x="0" y="0">S</tspan></text><text class="cls-3" transform="translate(39.99 56.81) rotate(166.38)"><tspan x="0" y="0">T</tspan></text><text class="cls-3" transform="translate(37.79 57.33) rotate(172.03)"><tspan x="0" y="0">É</tspan></text><text class="cls-3" transform="translate(35.3 57.65) rotate(176.37)"><tspan x="0" y="0"> </tspan></text><text class="cls-3" transform="translate(34.14 57.74) rotate(-179.07)"><tspan x="0" y="0">•</tspan></text><text class="cls-3" transform="translate(32.16 57.7) rotate(-176.28)"><tspan x="0" y="0"> </tspan></text><text class="cls-3" transform="translate(30.99 57.64) rotate(-172.12)"><tspan x="0" y="0">L</tspan></text><text class="cls-3" transform="translate(28.73 57.32) rotate(-166.47)"><tspan x="0" y="0">E</tspan></text><text class="cls-3" transform="translate(26.3 56.72) rotate(-160.42)"><tspan x="0" y="0">S</tspan></text><text class="cls-3" transform="translate(23.93 55.86) rotate(-154.71)"><tspan x="0" y="0">T</tspan></text><text class="cls-3" transform="translate(21.88 54.89) rotate(-149.07)"><tspan x="0" y="0">É</tspan></text><text class="cls-3" transform="translate(19.76 53.57) rotate(-144.75)"><tspan x="0" y="0"> </tspan></text><text class="cls-3" transform="translate(18.79 52.89) rotate(-140.98)"><tspan x="0" y="0">•</tspan></text><text class="cls-3" transform="translate(17.27 51.64) rotate(-137.3)"><tspan x="0" y="0"> </tspan></text><text class="cls-3" transform="translate(16.42 50.87) rotate(-133.21)"><tspan x="0" y="0">L</tspan></text><text class="cls-3" transform="translate(14.83 49.16) rotate(-127.48)"><tspan x="0" y="0">E</tspan></text><text class="cls-3" transform="translate(13.33 47.19) rotate(-121.54)"><tspan x="0" y="0">S</tspan></text><text class="cls-3" transform="translate(12.03 45.04) rotate(-115.91)"><tspan x="0" y="0">T</tspan></text><text class="cls-3" transform="translate(11.04 42.99) rotate(-110.2)"><tspan x="0" y="0">É</tspan></text><path class="cls-2" d="M27.08,41.94c2.55-.26,5.06.64,7.62.8.82.05,1.67.02,2.4-.34,1.11-.55,1.78-1.77,2.21-2.88"/></g></svg>