<?xml version="1.0" encoding="UTF-8"?><svg id="Layer_2" xmlns="http://www.w3.org/2000/svg" viewBox="0 0 102.5 102.5"><defs><style>.cls-1{fill:#047;}.cls-2{fill:none;stroke:#fff;stroke-linecap:round;stroke-linejoin:round;stroke-width:1.74px;}.cls-3{fill:#fff;}</style></defs><g id="Layer_1-2"><circle class="cls-1" cx="51.25" cy="51.25" r="51.25"/><path class="cls-2" d="M44.26,40.11c5.88.96,12.31,2.28,18.08.17,1.9-.69,3.76-1.87,4.56-3.73.6-1.4.16-3.48-1.34-3.74-1.27-.22-2.3.96-3.04,2.02-8.15,11.81-14.91,25.4-27.1,32.96-.69.43-1.69.8-2.22.19-.24-.28-.29-.67-.27-1.04.16-2.58,3.27-4.08,5.82-3.68,2.55.41,4.69,2.07,6.89,3.43,3.8,2.34,8.85,3.81,12.61,1.4,2.25-1.45,3.54-4.01,4.27-6.58"/><path class="cls-3" d="M16.08,37.15l.74.27-.86,2.36-4.39-1.59.27-.74,3.64,1.32.59-1.62Z"/><path class="cls-3" d="M17.66,33.76l.71.34-1.13,2.35-4.21-2.03,1.13-2.35.71.34-.79,1.64,1.04.5.55-1.15.71.34-.55,1.15,1.04.5.79-1.64Z"/><path class="cls-3" d="M17.76,32.51l-.23-.14.42-.67.23.14c.16.1.32.12.49.07s.3-.16.4-.32c.09-.15.13-.3.1-.46-.02-.16-.1-.28-.23-.36-.1-.06-.21-.09-.32-.08s-.21.03-.28.07c-.07.04-.2.11-.39.23-.04.02-.07.04-.09.05l-.27.16c-.66.41-1.23.46-1.7.17-.32-.2-.51-.47-.56-.83-.06-.36.02-.7.22-1.04.21-.35.5-.57.86-.66s.72-.03,1.07.19l.24.15-.42.67-.23-.14c-.16-.1-.33-.13-.49-.08s-.29.15-.39.31c-.09.14-.12.29-.09.44s.1.26.23.34c.12.08.25.09.39.05.14-.04.31-.14.52-.28l.3-.19c.33-.22.66-.34.98-.38s.61.03.87.18c.33.2.52.49.57.86.05.37-.03.72-.23,1.05-.21.34-.5.56-.87.68s-.74.06-1.1-.17Z"/><path class="cls-3" d="M18.86,26.28l3.08,2.35-.48.63-3.08-2.35-.6.78-.63-.48,1.68-2.2.63.48-.6.79Z"/><path class="cls-3" d="M20.13,23.08l-.61-.22.58-1.53.61.23-.58,1.52ZM24.46,24.57l.58.54-1.78,1.91-3.41-3.18,1.78-1.91.58.54-1.24,1.33.84.78.87-.93.58.54-.87.93.84.78,1.24-1.33Z"/><path class="cls-3" d="M27.57,22.12c-.2.16-.42.23-.67.2-.25-.03-.45-.14-.61-.33-.16-.2-.23-.42-.2-.67.03-.25.14-.45.33-.61.19-.16.42-.22.67-.19.25.03.46.14.61.33.16.19.22.42.2.67-.02.25-.13.45-.33.61Z"/><path class="cls-3" d="M32.92,18.2l.41.68-2.15,1.3-2.41-4,.68-.41,2,3.32,1.48-.89Z"/><path class="cls-3" d="M36.29,16.55l.34.71-2.36,1.12-2-4.22,2.36-1.12.34.71-1.65.78.49,1.04,1.15-.54.34.71-1.15.54.49,1.04,1.65-.78Z"/><path class="cls-3" d="M37.15,15.63l-.09-.25.75-.26.09.25c.06.18.18.3.34.36.17.06.33.06.51,0,.16-.06.29-.16.37-.29.08-.14.1-.28.05-.43-.04-.11-.11-.2-.2-.27-.09-.06-.18-.1-.26-.12-.08-.02-.23-.04-.45-.07-.04,0-.08-.02-.11-.02l-.31-.04c-.77-.1-1.25-.41-1.43-.94-.12-.35-.1-.69.08-1,.18-.31.45-.54.82-.67.38-.13.75-.13,1.09.03s.58.43.72.82l.09.27-.75.26-.09-.26c-.06-.18-.17-.3-.33-.37-.16-.07-.32-.07-.5,0-.16.06-.27.15-.35.28-.07.13-.08.27-.04.41.05.14.14.23.27.28.13.05.33.09.58.11l.35.04c.39.04.73.15,1,.32.27.17.46.4.56.69.13.37.1.71-.09,1.03s-.47.54-.84.67c-.38.13-.74.13-1.1-.02s-.61-.42-.75-.82Z"/><path class="cls-3" d="M41.9,11.49l.92,3.77-.77.19-.92-3.77-.96.23-.19-.77,2.69-.66.19.77-.96.23Z"/><path class="cls-3" d="M47.33,13.68l.11.78-2.59.36-.65-4.62,2.59-.36.11.78-1.81.25.16,1.14,1.26-.18.11.78-1.26.18.16,1.14,1.81-.25ZM44.9,9.8l-.33-.56,1.41-.82.33.56-1.41.81Z"/><path class="cls-3" d="M51.33,13.73c-.25,0-.47-.1-.64-.28-.17-.18-.26-.4-.25-.65,0-.25.1-.47.28-.64.18-.17.4-.26.65-.26.25,0,.46.1.63.28.17.18.26.4.25.65s-.1.46-.28.64c-.18.18-.39.26-.64.26Z"/><path class="cls-3" d="M57.9,14.05l-.11.78-2.49-.34.63-4.62.78.11-.53,3.84,1.71.23Z"/><path class="cls-3" d="M61.57,14.88l-.19.77-2.54-.61,1.09-4.54,2.54.61-.18.77-1.77-.43-.27,1.12,1.24.3-.19.77-1.24-.3-.27,1.12,1.77.43Z"/><path class="cls-3" d="M62.82,14.71l.09-.25.75.26-.09.25c-.06.18-.05.34.04.49s.22.26.4.32c.16.06.32.06.47,0,.15-.05.26-.15.31-.3.04-.11.04-.22.01-.33-.03-.11-.07-.19-.12-.26-.05-.06-.15-.18-.3-.34-.03-.04-.05-.06-.07-.08l-.22-.23c-.54-.56-.71-1.1-.53-1.63.13-.35.36-.59.69-.73.34-.13.69-.13,1.06,0,.38.14.66.37.83.71.17.33.18.7.04,1.09l-.1.27-.74-.26.09-.26c.06-.18.06-.35-.02-.5-.08-.15-.21-.26-.38-.32-.16-.06-.31-.06-.45,0-.14.06-.23.16-.28.3-.05.14-.04.27.04.39.07.12.2.28.38.45l.25.25c.28.28.47.57.58.88s.1.6,0,.88c-.13.37-.37.61-.72.74-.35.13-.71.13-1.08,0-.38-.13-.66-.37-.85-.71-.19-.34-.21-.71-.07-1.11Z"/><path class="cls-3" d="M69.14,14.49l-1.65,3.51-.71-.34,1.65-3.51-.89-.42.34-.71,2.5,1.18-.34.71-.9-.42Z"/><path class="cls-3" d="M71.96,19.58l-.41.68-2.24-1.34,2.4-4.01,2.24,1.34-.41.68-1.56-.94-.59.99,1.09.65-.41.68-1.09-.65-.59.99,1.57.94ZM72.51,15.04l.09-.64,1.62.25-.1.64-1.61-.25Z"/><path class="cls-3" d="M75.02,22.12c-.2-.16-.31-.36-.33-.61s.04-.47.2-.67c.16-.2.36-.31.61-.34.25-.03.47.04.67.2.19.16.3.36.33.61.02.25-.04.47-.2.67-.16.19-.36.3-.61.33-.25.03-.47-.04-.67-.19Z"/><path class="cls-3" d="M79.96,26.53l-.58.54-1.72-1.83,3.4-3.2.54.58-2.83,2.65,1.18,1.26Z"/><path class="cls-3" d="M82.28,29.48l-.63.48-1.59-2.07,3.7-2.84,1.59,2.07-.63.48-1.11-1.45-.91.7.77,1.01-.63.48-.77-1.01-.91.7,1.11,1.45Z"/><path class="cls-3" d="M83.36,30.13l.23-.14.41.67-.23.14c-.16.1-.25.23-.28.41-.03.17,0,.34.1.5.09.15.21.25.37.3s.3.04.43-.04c.1-.06.17-.15.22-.25.04-.1.06-.2.06-.28s0-.23-.02-.45c0-.05,0-.08,0-.11l-.02-.31c-.07-.77.14-1.31.61-1.6.32-.2.65-.24,1-.13s.62.33.83.66c.21.35.28.7.2,1.07-.08.37-.3.66-.65.88l-.24.15-.41-.67.23-.14c.16-.1.26-.23.29-.4.03-.17,0-.33-.1-.49-.09-.14-.2-.24-.35-.28-.14-.04-.28-.03-.41.05-.12.08-.19.18-.22.33-.02.14-.02.34.01.59l.03.35c.04.39.01.74-.1,1.04-.11.3-.3.53-.55.69-.33.2-.67.25-1.02.13-.35-.12-.63-.35-.83-.68-.21-.34-.28-.7-.22-1.08s.28-.69.65-.91Z"/><path class="cls-3" d="M88.42,33.91l-3.49,1.69-.34-.71,3.49-1.69-.43-.88.71-.35,1.21,2.49-.71.35-.43-.89Z"/><path class="cls-3" d="M87.43,39.68l-.74.27-.9-2.45,4.38-1.61.9,2.45-.74.27-.63-1.71-1.08.4.44,1.19-.74.27-.44-1.19-1.08.4.63,1.71ZM90.71,36.49l.47-.44,1.1,1.21-.48.44-1.09-1.2Z"/><path class="cls-3" d="M85.77,65.35l-.74-.27.86-2.36,4.39,1.59-.27.74-3.64-1.33-.59,1.62Z"/><path class="cls-3" d="M84.19,68.74l-.71-.34,1.13-2.35,4.21,2.03-1.13,2.35-.71-.34.79-1.64-1.04-.5-.55,1.15-.71-.34.55-1.15-1.04-.5-.79,1.64Z"/><path class="cls-3" d="M84.09,70l.23.14-.42.67-.23-.14c-.16-.1-.32-.12-.49-.07s-.3.16-.4.32c-.09.15-.13.3-.1.46.02.16.1.28.23.36.1.06.21.09.32.08.11,0,.21-.03.28-.07.07-.04.2-.11.39-.23.04-.02.07-.04.09-.05l.27-.16c.66-.41,1.23-.46,1.7-.17.32.2.5.47.56.83.06.36-.02.7-.22,1.04-.21.35-.5.57-.86.66-.36.09-.72.03-1.07-.19l-.24-.15.42-.67.23.14c.16.1.33.13.49.08.16-.05.29-.15.39-.31.09-.14.12-.29.09-.44s-.1-.26-.23-.34c-.12-.08-.25-.09-.39-.05-.14.04-.31.14-.52.28l-.3.19c-.33.22-.66.34-.98.38s-.61-.03-.87-.18c-.33-.2-.52-.49-.57-.86s.03-.72.23-1.05c.21-.34.5-.56.87-.68.37-.12.74-.06,1.1.17Z"/><path class="cls-3" d="M82.98,76.23l-3.08-2.35.48-.63,3.08,2.35.6-.78.63.48-1.68,2.2-.63-.48.6-.79Z"/><path class="cls-3" d="M77.39,77.93l-.58-.54,1.78-1.91,3.41,3.18-1.78,1.91-.58-.54,1.24-1.33-.84-.78-.87.93-.58-.54.87-.93-.84-.78-1.24,1.33ZM81.72,79.42l.61.22-.58,1.53-.61-.23.58-1.52Z"/><path class="cls-3" d="M74.28,80.39c.2-.16.42-.23.67-.2.25.03.45.14.61.33.16.2.23.42.2.67-.03.25-.14.45-.33.61-.19.16-.42.22-.67.19-.25-.03-.45-.14-.61-.33-.16-.19-.22-.42-.2-.67.02-.25.13-.45.33-.61Z"/><path class="cls-3" d="M68.93,84.3l-.41-.68,2.15-1.3,2.41,4-.68.41-2-3.32-1.48.89Z"/><path class="cls-3" d="M65.56,85.95l-.34-.71,2.36-1.12,2,4.22-2.36,1.12-.34-.71,1.65-.78-.49-1.04-1.15.54-.34-.71,1.15-.54-.49-1.04-1.65.78Z"/><path class="cls-3" d="M64.7,86.87l.09.25-.75.26-.09-.25c-.06-.18-.17-.3-.34-.36-.17-.06-.33-.06-.51,0-.16.06-.29.16-.37.29s-.1.28-.05.43c.04.11.11.2.2.27.09.06.18.1.26.12s.23.04.45.07c.04,0,.08.02.1.02l.31.04c.77.1,1.25.41,1.43.94.12.35.1.69-.08,1-.18.31-.45.54-.82.67-.38.13-.75.13-1.09-.03s-.58-.43-.72-.82l-.09-.27.75-.26.09.26c.06.18.17.3.33.37.16.07.32.07.5,0,.16-.06.27-.15.35-.28.07-.13.08-.27.04-.41-.05-.14-.14-.23-.27-.28-.13-.05-.33-.09-.58-.11l-.35-.04c-.39-.04-.73-.15-1-.32-.27-.17-.46-.4-.56-.69-.13-.37-.1-.71.09-1.03.19-.32.47-.54.84-.67.38-.13.74-.13,1.1.02s.61.42.75.82Z"/><path class="cls-3" d="M59.94,91.01l-.92-3.77.77-.19.92,3.77.96-.23.19.77-2.69.66-.19-.77.96-.23Z"/><path class="cls-3" d="M54.52,88.82l-.11-.78,2.59-.36.65,4.62-2.59.36-.11-.78,1.81-.25-.16-1.14-1.26.18-.11-.78,1.26-.18-.16-1.14-1.81.25ZM56.94,92.7l.33.56-1.41.82-.33-.56,1.41-.81Z"/><path class="cls-3" d="M50.52,88.77c.25,0,.47.1.64.28.17.18.26.4.25.65,0,.25-.1.47-.28.64-.18.17-.4.26-.65.26-.25,0-.46-.1-.63-.28-.17-.18-.26-.4-.25-.65s.1-.46.28-.64c.18-.18.39-.26.64-.26Z"/><path class="cls-3" d="M43.94,88.45l.11-.78,2.49.34-.63,4.62-.78-.11.53-3.84-1.71-.23Z"/><path class="cls-3" d="M40.28,87.62l.19-.77,2.54.61-1.09,4.54-2.54-.61.18-.77,1.77.43.27-1.12-1.24-.3.18-.77,1.24.3.27-1.12-1.77-.43Z"/><path class="cls-3" d="M39.02,87.79l-.09.25-.74-.26.09-.25c.06-.18.05-.34-.04-.49s-.22-.26-.4-.32c-.16-.06-.32-.06-.47,0-.15.05-.26.15-.31.3-.04.11-.04.22-.01.33.03.11.07.19.12.26s.15.18.3.34c.03.04.05.06.07.08l.22.23c.54.56.71,1.1.53,1.63-.12.35-.36.59-.69.73-.34.13-.69.13-1.06,0-.38-.14-.66-.37-.83-.71-.17-.33-.18-.7-.04-1.09l.1-.27.74.26-.09.26c-.06.18-.06.35.02.5.08.15.21.26.38.32.16.06.31.06.45,0,.14-.06.23-.16.28-.3.05-.14.04-.27-.04-.39-.07-.12-.2-.28-.38-.45l-.25-.25c-.28-.28-.47-.57-.58-.88-.1-.31-.1-.6,0-.88.13-.37.37-.61.72-.74.35-.13.71-.13,1.08,0,.38.13.66.37.85.71.19.34.21.71.07,1.11Z"/><path class="cls-3" d="M32.71,88.02l1.65-3.51.71.34-1.65,3.51.89.42-.34.71-2.5-1.18.34-.71.9.42Z"/><path class="cls-3" d="M29.34,87.46l-.09.64-1.62-.25.1-.64,1.61.25ZM29.89,82.92l.41-.68,2.24,1.34-2.4,4.01-2.24-1.34.41-.68,1.57.94.59-.99-1.09-.65.41-.68,1.09.65.59-.99-1.57-.94Z"/><path class="cls-3" d="M26.83,80.38c.2.16.31.36.33.61s-.04.47-.2.67c-.16.2-.36.31-.61.34s-.47-.04-.67-.2c-.19-.16-.3-.36-.33-.61-.03-.25.04-.47.2-.67.16-.19.36-.3.61-.33.25-.03.47.04.67.19Z"/><path class="cls-3" d="M21.89,75.97l.58-.54,1.72,1.83-3.4,3.2-.54-.58,2.83-2.65-1.18-1.26Z"/><path class="cls-3" d="M19.57,73.03l.63-.48,1.59,2.07-3.7,2.84-1.59-2.07.63-.48,1.11,1.45.91-.7-.77-1.01.63-.48.77,1.01.91-.7-1.11-1.45Z"/><path class="cls-3" d="M18.49,72.37l-.23.14-.41-.67.23-.14c.16-.1.25-.23.28-.41.03-.17,0-.34-.1-.5-.09-.15-.21-.25-.37-.3s-.3-.04-.43.04c-.1.06-.17.15-.22.25-.04.1-.06.2-.06.28,0,.08,0,.23.02.45,0,.05,0,.08,0,.11l.02.31c.07.77-.14,1.31-.61,1.6-.32.2-.65.24-.99.13-.34-.11-.62-.33-.83-.67-.21-.35-.28-.7-.2-1.07.08-.37.3-.66.65-.88l.25-.15.41.67-.23.14c-.16.1-.26.23-.29.4-.03.17,0,.33.1.49.09.14.2.24.35.28.14.04.28.03.41-.05.12-.08.19-.18.22-.33.02-.14.02-.34-.01-.59l-.03-.35c-.04-.39-.01-.74.1-1.04.11-.3.3-.53.55-.69.33-.2.67-.25,1.02-.13.35.12.63.35.83.68.21.34.28.7.22,1.08-.06.38-.28.69-.65.91Z"/><path class="cls-3" d="M13.43,68.59l3.49-1.69.35.71-3.49,1.69.43.88-.71.35-1.21-2.49.71-.34.43.89Z"/><path class="cls-3" d="M11.14,66.02l-.47.44-1.1-1.21.48-.44,1.09,1.2ZM14.42,62.83l.74-.27.9,2.45-4.38,1.61-.9-2.45.74-.27.63,1.71,1.08-.4-.44-1.19.74-.27.44,1.19,1.08-.4-.63-1.71Z"/><path class="cls-2" d="M40.97,63.88c3.93-.4,7.81.99,11.74,1.24,1.26.08,2.58.03,3.71-.53,1.71-.85,2.75-2.73,3.41-4.44"/></g></svg>